<?xml version="1.0" encoding="utf-8"?>
<!-- Generator: Adobe Illustrator 16.0.0, SVG Export Plug-In . SVG Version: 6.00 Build 0)  -->
<!DOCTYPE svg PUBLIC "-//W3C//DTD SVG 1.1//EN" "http://www.w3.org/Graphics/SVG/1.1/DTD/svg11.dtd">
<svg version="1.1" id="圖層_1" xmlns="http://www.w3.org/2000/svg" xmlns:xlink="http://www.w3.org/1999/xlink" x="0px" y="0px"
	 width="30px" height="30px" viewBox="0 0 30 30" enable-background="new 0 0 30 30" xml:space="preserve">
<path fill="#060064" d="M-208.325,9c0-0.057-0.008-0.11-0.008-0.167c0-6.848,5.508-12.401,12.333-12.492v-1.344
	c-1.185-0.283-2.067-1.342-2.067-2.612s0.883-2.329,2.067-2.612v-2.255c-1.185-0.283-2.067-1.342-2.067-2.613
	c0-1.271,0.883-2.329,2.067-2.612v-2.255c-1.185-0.283-2.067-1.342-2.067-2.612c0-1.271,0.883-2.33,2.067-2.612v-2.255
	c-1.185-0.283-2.067-1.342-2.067-2.613c0-1.271,0.883-2.329,2.067-2.612v-2.255c-1.185-0.283-2.067-1.342-2.067-2.613
	c0-1.271,0.883-2.329,2.067-2.612v-2.254c-1.185-0.283-2.067-1.342-2.067-2.613c0-1.271,0.883-2.329,2.067-2.612v-2.254
	c-1.185-0.283-2.067-1.343-2.067-2.614c0-1.27,0.883-2.329,2.067-2.612v-2.254c-1.185-0.283-2.067-1.343-2.067-2.613
	s0.883-2.33,2.067-2.613v-2.254c-1.185-0.283-2.067-1.343-2.067-2.612c0-1.271,0.883-2.331,2.067-2.614v-2.254
	c-1.185-0.283-2.067-1.342-2.067-2.612c0-1.271,0.883-2.33,2.067-2.613v-1.127c-6.77-0.089-12.235-5.555-12.325-12.324H-221V9
	H-208.325z"/>
<rect x="-44" y="-39" fill="#FFFFFF" width="30" height="30"/>
<rect x="-44" y="38" fill="#FFFFFF" width="30" height="30"/>
<path fill="#FFFFFF" d="M-66.683-39c0.002,0.112,0.017,0.221,0.017,0.334c0,11.045-8.955,20-20,20c-0.113,0-0.222-0.015-0.334-0.017
	V-9h30v-30H-66.683z"/>
<path fill="#FFFFFF" d="M30-18.683c-0.112,0.002-0.221,0.017-0.334,0.017c-11.045,0-20-8.955-20-20c0-0.113,0.015-0.222,0.017-0.334
	H0v30h30V-18.683z"/>
<path fill="#FFFFFF" d="M9.682,68c-0.002,0-0.017-0.221-0.017-0.334c0-11.045,8.956-19.999,20.001-19.999
	c0.113,0,0.334,0.015,0.334,0.017V38H0v30H9.682z"/>
<path fill="#FFFFFF" d="M-87,47.68c0-0.002,0.221-0.017,0.334-0.017c11.045,0,19.999,8.957,19.999,20.002
	c0,0.113-0.015,0.335-0.017,0.335H-57V38h-30V47.68z"/>
<path fill="#FFFFFF" d="M-87,0v5.017c5.367,0.178,9.667,4.573,9.667,9.983c0,5.411-4.299,9.806-9.667,9.983V30h30V0H-87z"/>
<path fill="#FFFFFF" d="M30,30v-5.017c-5.367-0.178-9.666-4.573-9.666-9.983c0-5.411,4.299-9.806,9.666-9.983V0H0v30H30z"/>
</svg>
